<svg width="650" height="738" viewBox="0 0 650 738" fill="none" xmlns="http://www.w3.org/2000/svg">
<circle cx="320.5" cy="416.5" r="320.5" fill="url(#paint0_radial_27_2329)"/>
<mask id="mask0_27_2329" style="mask-type:alpha" maskUnits="userSpaceOnUse" x="0" y="0" width="650" height="737">
<rect width="650" height="737" fill="#D9D9D9"/>
</mask>
<g mask="url(#mask0_27_2329)">
<circle cx="325.5" cy="415.5" r="272" stroke="url(#paint1_linear_27_2329)" stroke-width="13"/>
<path d="M647.745 20.3317C647.745 20.0003 647.424 20.166 647.263 20.3317C642.606 34.4175 632.168 36.0746 621.73 38.3946C629.438 26.9603 634.577 13.7031 632.811 -2.03986C621.57 -2.03986 602.942 -2.03986 578.694 -2.20557C579.015 6.2459 577.088 15.3602 574.519 21.9888C568.737 36.9032 555.891 46.0175 542.723 53.9719C527.949 62.9205 513.818 71.7034 506.11 88.2749C498.723 103.686 499.044 122.247 498.402 138.984C498.402 139.149 498.241 139.149 498.241 138.984C497.599 123.904 496.153 108.658 499.847 93.9092C503.38 79.8234 510.927 67.2291 521.205 57.2862C531.964 47.1775 545.613 38.5604 553.643 25.8003C558.139 18.8402 560.548 10.8859 560.387 2.43444C560.387 0.777293 560.227 -0.714136 560.066 -2.20557C422.124 -3.03415 153.949 -4.85702 51.6568 -3.5313C54.5473 8.06876 57.1166 20.0003 61.613 30.9375C66.4305 42.5375 73.3356 53.1433 80.8831 62.7548C94.3722 79.8234 108.985 95.8978 121.35 113.629C131.306 127.881 142.708 146.772 137.409 165.167C137.248 165.332 136.927 165.332 137.088 165.001C141.584 142.298 121.671 119.429 107.701 104.515C92.2846 88.1092 73.4962 76.1777 58.2407 59.6062C41.8612 41.7089 31.7444 20.0003 24.9998 -3.19987C15.686 -2.86844 10.5473 -2.53701 10.5473 -2.03986C9.74434 5.41732 10.3867 12.8745 11.8319 19.8345C16.1677 38.8918 27.7298 56.1262 39.9342 70.212C53.4232 85.7892 68.6787 100.538 78.3137 119.595C67.2334 109.818 54.3867 102.361 43.3064 93.4121C25.4816 78.8291 9.58376 63.5834 7.49617 35.9089C7.49617 35.5775 7.01442 35.4118 7.01442 35.9089C2.35748 58.7776 14.5619 81.6463 26.7663 97.8864C33.3502 106.669 41.8612 113.298 49.5692 120.424C57.9196 128.047 64.9853 136.829 72.2115 146.11C87.3065 165.83 85.54 190.355 88.1094 214.881C88.27 234.27 90.3575 252.664 100.314 267.579C101.117 268.904 102.08 269.899 102.883 271.059C97.2627 269.567 91.8028 267.744 86.343 265.093C70.6057 257.304 58.2407 244.876 55.5108 223.664C52.6203 200.464 57.9196 176.601 55.3502 153.401C55.3502 153.07 54.8685 153.07 54.8685 153.401C51.3356 166.161 50.6933 180.578 49.0874 193.835C47.8028 204.773 46.6787 216.041 47.6422 227.144C49.248 246.533 58.2407 263.27 72.051 273.379C86.1824 283.819 103.204 287.465 119.263 289.95C123.438 290.613 127.613 291.276 131.788 292.105C146.401 302.213 159.088 315.47 168.241 333.202C173.54 343.476 177.394 354.414 180.927 365.516C182.212 389.048 182.693 412.745 189.438 431.968C203.088 471.077 233.759 483.837 265.555 484.997C272.46 495.769 282.095 504.386 295.745 501.403C302.81 499.911 308.752 495.437 313.569 489.471C324.329 490.466 335.088 490.134 345.365 488.311C350.504 491.294 356.285 493.283 361.584 493.78C377.642 495.603 394.825 485.826 401.891 470.746C414.256 462.957 425.818 452.517 435.774 439.26C448.46 422.191 458.416 402.305 464.037 380.265C466.124 372.145 467.57 363.859 469.175 355.574C469.175 355.574 469.336 355.574 469.497 355.574C480.737 355.242 490.372 356.734 500.168 348.613C522.008 330.219 518.956 295.916 525.059 267.082C529.876 263.767 534.854 260.619 539.511 257.636C562.314 242.721 587.044 225.321 597.321 201.127C609.526 172.458 592.665 149.59 587.526 125.395C584.796 111.972 584.475 97.555 586.884 82.972C587.205 80.8177 587.686 78.6634 588.168 76.5091C589.453 74.6863 590.898 72.8634 592.343 71.0405C596.519 66.2348 601.176 61.5948 605.672 56.6233C614.665 50.3261 624.46 47.0118 633.935 41.709C641.803 38.3946 649.511 30.7717 647.745 20.3317ZM166.956 317.459C161.496 310.168 155.234 303.539 148.489 297.739C153.307 299.562 157.963 301.55 162.62 303.705C166.153 305.528 169.526 307.516 172.898 309.67C176.109 318.288 178.036 327.899 179.321 338.008C175.788 330.882 171.774 323.922 166.956 317.459ZM182.051 318.122C181.73 317.293 181.409 316.299 181.088 315.47C199.555 329.556 214.65 350.105 218.504 376.619C221.234 395.179 221.394 414.734 226.533 432.3C215.613 420.368 206.942 405.785 200.036 389.214C196.664 381.094 193.613 372.974 190.562 364.854C189.117 349.111 187.19 333.368 182.051 318.122ZM234.883 466.106C224.606 461.134 214.971 453.677 208.066 443.237C201 432.465 197.467 419.208 195.058 405.785C196.182 408.437 197.307 411.088 198.591 413.574C209.029 435.117 224.766 452.517 243.234 463.951C245.321 465.277 247.409 466.437 249.496 467.431C252.226 469.751 255.117 471.74 258.007 473.563C250.299 472.237 242.431 469.917 234.883 466.106ZM265.555 430.808C251.102 423.517 246.606 407.442 244.839 392.031C242.591 372.974 241.628 352.922 236.81 334.362C231.19 313.15 217.54 296.745 198.591 286.967C179.321 276.859 158.927 274.042 137.73 271.556C137.569 271.556 137.409 271.224 137.73 271.224C156.358 267.579 177.715 272.716 194.898 279.842C212.241 286.967 228.139 298.236 237.131 315.47C246.124 332.705 247.569 351.762 248.693 370.985C249.978 391.699 247.891 416.225 266.518 429.317C267.642 429.814 266.679 431.471 265.555 430.808ZM297.672 494.774C286.752 499.414 277.92 493.78 271.015 485.494C275.993 485.494 280.81 485.329 285.788 484.831C292.533 486.654 299.277 488.146 306.183 488.974C303.934 491.294 301.204 493.283 297.672 494.774ZM362.869 486.82C361.423 486.654 359.978 486.157 358.694 485.826C359.015 485.66 359.336 485.66 359.818 485.494C360.621 485.494 361.584 485.328 362.387 485.328C371.54 484.666 381.015 482.18 390.168 478.037C391.613 477.374 393.219 476.711 394.664 475.883C385.993 484.168 375.073 488.808 362.869 486.82ZM436.577 414.9C428.226 428.157 417.789 439.757 406.548 448.374C412.65 438.265 417.467 426.168 420.679 411.751C422.285 404.459 423.57 396.671 424.854 388.882C429.672 380.099 435.774 372.145 443.161 366.511C448.621 362.202 454.883 359.054 461.307 357.562C454.723 377.779 447.978 396.837 436.577 414.9ZM526.183 201.458C520.883 218.361 510.927 234.601 498.723 247.03C484.431 261.613 467.73 273.379 452.956 287.299C437.219 302.213 427.263 319.448 422.767 340.825C422.606 341.322 421.964 341.156 421.964 340.659C425.015 321.933 432.402 305.693 444.445 291.442C457.292 276.362 472.869 264.43 485.234 248.853C496.635 234.767 507.876 219.024 515.584 202.453C519.599 193.835 523.935 185.384 526.343 176.27C529.234 165.332 530.518 154.064 531.321 142.795C531.321 142.464 531.643 142.464 531.643 142.795C532.927 161.687 531.803 183.395 526.183 201.458ZM549.467 193.67C551.234 177.761 550.592 161.521 551.876 145.612C553.482 124.898 559.745 110.149 568.898 97.2235V97.3892C567.935 101.698 566.971 106.338 566.489 110.978C565.205 115.618 564.081 120.424 563.117 125.395C558.942 147.767 558.139 170.801 552.84 192.841C551.234 199.138 549.307 205.27 546.898 211.07C547.701 205.436 548.825 199.636 549.467 193.67ZM584.475 198.973C577.73 214.218 563.759 225.984 548.825 236.59C553.161 228.967 556.854 220.847 559.745 212.561C567.935 189.693 569.219 165.167 571.307 140.807C572.752 125.229 574.519 109.652 579.497 95.7321C578.373 102.526 577.73 109.321 577.891 115.949C578.051 129.869 581.424 142.464 584.796 155.224C588.489 168.481 591.54 183.23 584.475 198.973Z" fill="#005466"/>
<path d="M182.164 177.363C181.998 176.534 181.501 175.87 181.003 175.372C180.671 175.206 180.339 174.874 180.007 174.708C179.343 174.21 178.514 174.044 177.684 174.044C177.02 174.044 176.522 174.21 175.859 174.376C175.361 174.542 174.863 174.874 174.365 175.372C173.867 175.87 173.535 176.202 173.37 176.865C173.038 177.363 172.872 178.027 173.038 178.691L173.204 179.852C173.37 180.682 173.867 181.346 174.365 181.844C174.697 182.01 175.029 182.341 175.361 182.507C176.025 183.005 176.854 183.171 177.684 183.171C178.348 183.171 178.846 183.005 179.509 182.839C180.007 182.673 180.505 182.342 181.003 181.844C181.501 181.346 181.833 181.014 181.998 180.35C182.33 179.852 182.496 179.189 182.33 178.525L182.164 177.363Z" fill="white"/>
<path d="M174.863 154.463C171.046 154.463 171.046 160.271 174.863 160.271C178.68 160.437 178.68 154.463 174.863 154.463Z" fill="white"/>
<path d="M124.583 210.054C124.417 209.39 124.085 208.892 123.587 208.56C123.421 208.394 123.089 208.228 122.923 208.062C122.426 207.731 121.762 207.565 121.098 207.565C120.6 207.565 120.102 207.731 119.771 207.896C119.273 208.062 118.941 208.228 118.609 208.56C118.277 208.892 117.945 209.224 117.945 209.722C117.779 210.22 117.613 210.552 117.613 211.049C117.613 211.381 117.779 211.713 117.779 212.045C117.945 212.709 118.277 213.207 118.775 213.538C118.941 213.704 119.273 213.87 119.439 214.036C119.936 214.368 120.6 214.534 121.264 214.534C121.762 214.534 122.26 214.368 122.592 214.202C123.089 214.036 123.421 213.87 123.753 213.538C124.085 213.207 124.417 212.875 124.417 212.377C124.583 211.879 124.749 211.547 124.749 211.049C124.749 210.717 124.749 210.386 124.583 210.054Z" fill="white"/>
<path d="M84.9229 174.044C81.77 174.044 81.6041 179.023 84.9229 179.023C88.0758 179.023 88.0758 174.044 84.9229 174.044Z" fill="white"/>
<path d="M103.342 195.451C103.342 194.621 103.01 193.791 102.678 193.128C102.347 192.63 102.015 192.298 101.683 191.8C101.185 191.468 100.853 191.136 100.355 190.804C99.6915 190.307 98.8618 190.141 98.0321 190.141C97.5343 189.975 96.8705 189.975 96.3727 190.141C95.8749 190.141 95.2111 190.307 94.7133 190.639C93.8836 190.97 93.2198 191.302 92.722 191.966C92.3901 192.464 92.0582 192.796 91.7263 193.294L91.0625 194.787C91.0625 195.285 90.8966 195.949 90.8966 196.446C90.8966 197.276 91.0626 198.106 91.3944 198.936C91.7263 199.765 92.0582 200.429 92.722 200.927C93.8836 201.923 94.0495 202.088 95.543 202.586C97.5343 203.25 100.023 202.586 101.351 201.093L101.517 200.927C102.181 200.429 102.513 199.765 102.844 198.936C103.176 198.438 103.342 197.94 103.342 197.276C103.508 196.612 103.508 196.115 103.342 195.451Z" fill="white"/>
<path d="M124.085 243.74C120.102 243.74 120.102 250.046 124.085 250.046C128.068 249.88 128.068 243.74 124.085 243.74Z" fill="white"/>
<path d="M158.933 279.085C155.116 279.085 155.116 285.059 158.933 285.059C162.749 285.225 162.749 279.085 158.933 279.085Z" fill="white"/>
<path d="M147.151 271.12C144.496 271.12 144.496 275.103 147.151 275.103C149.806 275.269 149.806 271.12 147.151 271.12Z" fill="white"/>
<path d="M123.587 132.725C119.937 132.725 119.937 138.367 123.587 138.367C127.072 138.367 127.072 132.725 123.587 132.725Z" fill="white"/>
<path d="M179.178 114.139C175.859 114.139 175.859 119.284 179.178 119.284C182.496 119.284 182.496 114.139 179.178 114.139Z" fill="white"/>
<path d="M289.861 302.649C289.695 301.819 289.197 301.156 288.699 300.658C288.367 300.492 288.035 300.16 287.703 299.994C287.04 299.496 286.21 299.33 285.38 299.33C284.716 299.33 284.219 299.496 283.555 299.662C283.057 299.828 282.559 300.16 282.061 300.658C281.564 301.156 281.232 301.487 281.066 302.151C280.734 302.649 280.568 303.313 280.734 303.977L280.9 305.138C281.066 305.968 281.564 306.632 282.061 307.129C282.393 307.295 282.725 307.627 283.057 307.793C283.721 308.291 284.55 308.457 285.38 308.457C286.044 308.457 286.542 308.291 287.206 308.125C287.703 307.959 288.201 307.627 288.699 307.129C289.197 306.632 289.529 306.3 289.695 305.636C290.027 305.138 290.192 304.474 290.027 303.811L289.861 302.649Z" fill="white"/>
<path d="M288.201 266.64C284.384 266.64 284.384 272.448 288.201 272.448C292.018 272.448 292.018 266.64 288.201 266.64Z" fill="white"/>
<path d="M391.915 461.953C391.583 460.791 391.085 459.796 390.255 458.966C389.757 458.634 389.425 458.302 388.928 457.97C387.932 457.306 386.77 457.141 385.609 457.141C384.779 457.141 383.783 457.306 383.12 457.638C382.29 457.97 381.626 458.302 380.962 458.966C380.299 459.63 379.801 460.293 379.635 461.123C379.303 461.953 378.971 462.783 379.137 463.612C379.137 464.276 379.303 464.774 379.303 465.438C379.635 466.599 380.133 467.595 380.962 468.425C381.46 468.756 381.792 469.088 382.29 469.42C383.286 470.084 384.447 470.25 385.609 470.25C386.438 470.25 387.434 470.084 388.098 469.752C388.928 469.42 389.591 469.088 390.255 468.425C390.919 467.761 391.417 467.097 391.583 466.267C391.915 465.438 392.246 464.608 392.08 463.778C392.08 463.114 392.08 462.617 391.915 461.953Z" fill="white"/>
<path d="M198.261 286.055C195.108 286.055 194.942 291.033 198.261 291.033C201.414 291.199 201.414 286.055 198.261 286.055Z" fill="white"/>
<path d="M251.86 298.335C251.86 297.505 251.528 296.675 251.196 296.011C250.864 295.513 250.532 295.182 250.2 294.684C249.703 294.352 249.371 294.02 248.873 293.688C248.209 293.19 247.379 293.024 246.55 293.024C246.052 292.858 245.388 292.858 244.89 293.024C244.392 293.024 243.729 293.19 243.231 293.522C242.401 293.854 241.737 294.186 241.24 294.85C240.908 295.348 240.576 295.679 240.244 296.177L239.58 297.671C239.58 298.169 239.414 298.832 239.414 299.33C239.414 300.16 239.58 300.99 239.912 301.819C240.244 302.649 240.576 303.313 241.24 303.811C242.401 304.806 242.567 304.972 244.061 305.47C246.052 306.134 248.541 305.47 249.868 303.977L250.034 303.811C250.698 303.313 251.03 302.649 251.362 301.819C251.694 301.321 251.86 300.824 251.86 300.16C252.026 299.496 252.026 298.998 251.86 298.335Z" fill="white"/>
<path d="M267.458 470.416C259.991 470.416 259.991 482.032 267.458 482.032C275.092 482.032 275.092 470.416 267.458 470.416Z" fill="white"/>
<path d="M236.925 244.735C233.275 244.735 233.275 250.377 236.925 250.377C240.41 250.377 240.41 244.735 236.925 244.735Z" fill="white"/>
<path d="M228.794 228.473C225.143 228.473 225.143 234.115 228.794 234.115C232.445 234.115 232.445 228.473 228.794 228.473Z" fill="white"/>
<path d="M279.24 214.534C275.922 214.534 275.922 219.678 279.24 219.678C282.559 219.678 282.559 214.534 279.24 214.534Z" fill="white"/>
<path d="M217.842 178.691C214.523 178.691 214.523 183.835 217.842 183.835C221.161 183.835 221.161 178.691 217.842 178.691Z" fill="white"/>
<path d="M182.33 220.176C179.012 220.176 179.012 225.32 182.33 225.32C185.649 225.486 185.649 220.176 182.33 220.176Z" fill="white"/>
<path d="M194.112 253.364C190.793 253.364 190.793 258.508 194.112 258.508C197.431 258.508 197.597 253.364 194.112 253.364Z" fill="white"/>
<path d="M315.416 182.01C315.25 181.18 314.752 180.516 314.254 180.018C313.922 179.852 313.59 179.52 313.258 179.355C312.595 178.857 311.765 178.691 310.935 178.691C310.271 178.691 309.774 178.857 309.11 179.023C308.612 179.189 308.114 179.52 307.616 180.018C307.119 180.516 306.787 180.848 306.621 181.512C306.289 182.01 306.123 182.673 306.289 183.337L306.455 184.499C306.621 185.328 307.119 185.992 307.616 186.49C307.948 186.656 308.28 186.988 308.612 187.154C309.276 187.652 310.106 187.818 310.935 187.818C311.599 187.818 312.097 187.652 312.761 187.486C313.258 187.32 313.756 186.988 314.254 186.49C314.752 185.992 315.084 185.66 315.25 184.997C315.582 184.499 315.748 183.835 315.582 183.171L315.416 182.01Z" fill="white"/>
<path d="M511.724 93.8945C504.755 93.8945 504.755 104.847 511.724 104.847C518.694 104.681 518.86 93.8945 511.724 93.8945Z" fill="white"/>
<path d="M277.415 177.861C277.415 177.031 277.083 176.202 276.751 175.538C276.419 175.04 276.087 174.708 275.755 174.21C275.258 173.879 274.926 173.547 274.428 173.215C273.764 172.717 272.934 172.551 272.105 172.551C271.607 172.385 270.943 172.385 270.445 172.551C269.947 172.551 269.284 172.717 268.786 173.049C267.956 173.381 267.292 173.713 266.795 174.376C266.463 174.874 266.131 175.206 265.799 175.704L265.135 177.197C265.135 177.695 264.969 178.359 264.969 178.857C264.969 179.686 265.135 180.516 265.467 181.346C265.799 182.176 266.131 182.839 266.795 183.337C267.956 184.333 268.122 184.499 269.616 184.997C271.607 185.66 274.096 184.997 275.424 183.503L275.589 183.337C276.253 182.839 276.585 182.176 276.917 181.346C277.249 180.848 277.415 180.35 277.415 179.686C277.581 179.023 277.581 178.359 277.415 177.861Z" fill="white"/>
<path d="M221.492 118.454C221.492 117.624 221.161 116.795 220.829 116.131C220.497 115.633 220.165 115.301 219.833 114.803C219.335 114.471 219.003 114.14 218.506 113.808C217.842 113.31 217.012 113.144 216.182 113.144C215.685 112.978 215.021 112.978 214.523 113.144C214.025 113.144 213.361 113.31 212.864 113.642C212.034 113.974 211.37 114.305 210.872 114.969C210.54 115.467 210.208 115.799 209.877 116.297L209.213 117.79C209.213 118.288 209.047 118.952 209.047 119.45C209.047 120.279 209.213 121.109 209.545 121.939C209.877 122.768 210.208 123.432 210.872 123.93C212.034 124.926 212.2 125.092 213.693 125.589C215.685 126.253 218.174 125.589 219.501 124.096L219.667 123.93C220.331 123.432 220.663 122.768 220.995 121.939C221.327 121.441 221.492 120.943 221.492 120.279C221.658 119.45 221.658 118.952 221.492 118.454Z" fill="white"/>
<path d="M283.057 124.262C279.406 124.262 279.406 129.904 283.057 129.904C286.542 129.904 286.542 124.262 283.057 124.262Z" fill="white"/>
<path d="M317.905 105.677C314.586 105.677 314.586 110.821 317.905 110.821C321.223 110.821 321.223 105.677 317.905 105.677Z" fill="white"/>
<path d="M484.344 106.34C485.174 106.174 485.837 105.677 486.335 105.179C486.501 104.847 486.833 104.515 486.999 104.183C487.497 103.519 487.663 102.69 487.663 101.86C487.663 101.196 487.497 100.698 487.331 100.035C487.165 99.5367 486.833 99.0389 486.335 98.5411C485.837 98.0433 485.506 97.7114 484.842 97.5454C484.344 97.2135 483.68 97.0476 483.016 97.2135L481.855 97.3795C481.025 97.5454 480.361 98.0433 479.864 98.5411C479.698 98.873 479.366 99.2048 479.2 99.5367C478.702 100.2 478.536 101.03 478.536 101.86C478.536 102.524 478.702 103.021 478.868 103.685C479.034 104.183 479.366 104.681 479.864 105.179C480.361 105.677 480.693 106.008 481.357 106.174C481.855 106.506 482.519 106.672 483.182 106.506L484.344 106.34Z" fill="white"/>
<path d="M507.244 99.0388C507.244 95.2221 501.436 95.2221 501.436 99.0388C501.436 102.855 507.244 102.855 507.244 99.0388Z" fill="white"/>
<path d="M451.819 48.7586C452.483 48.5927 452.981 48.2608 453.313 47.763C453.479 47.597 453.645 47.2651 453.811 47.0992C454.143 46.6014 454.309 45.9376 454.309 45.2738C454.309 44.776 454.143 44.2782 453.977 43.9463C453.811 43.4485 453.645 43.1166 453.313 42.7847C452.981 42.4528 452.649 42.121 452.151 42.121C451.653 41.955 451.322 41.7891 450.824 41.7891C450.492 41.7891 450.16 41.955 449.828 41.955C449.164 42.1209 448.667 42.4528 448.335 42.9507C448.169 43.1166 448.003 43.4485 447.837 43.6144C447.505 44.1122 447.339 44.776 447.339 45.4398C447.339 45.9376 447.505 46.4354 447.671 46.7673C447.837 47.2651 448.003 47.597 448.335 47.9289C448.667 48.2608 448.998 48.5927 449.496 48.5927C449.994 48.7586 450.326 48.9246 450.824 48.9246C451.156 48.7586 451.488 48.7586 451.819 48.7586Z" fill="white"/>
<path d="M487.829 8.93254C487.829 5.77965 482.85 5.61371 482.85 8.93254C482.85 12.2514 487.829 12.2514 487.829 8.93254Z" fill="white"/>
<path d="M466.256 27.352C467.086 27.352 467.916 27.0201 468.58 26.6882C469.077 26.3563 469.409 26.0245 469.907 25.6926C470.239 25.1947 470.571 24.8629 470.903 24.365C471.401 23.7013 471.566 22.8716 471.566 22.0418C471.732 21.544 471.732 20.8803 471.566 20.3824C471.566 19.8846 471.401 19.2208 471.069 18.723C470.737 17.8933 470.405 17.2296 469.741 16.7317C469.243 16.3998 468.911 16.068 468.414 15.7361L466.92 15.0723C466.422 15.0723 465.759 14.9064 465.261 14.9064C464.431 14.9064 463.601 15.0723 462.772 15.4042C461.942 15.7361 461.278 16.068 460.78 16.7317C459.785 17.8933 459.619 18.0593 459.121 19.5527C458.457 21.544 459.121 24.0331 460.614 25.3607L460.78 25.5266C461.278 26.1904 461.942 26.5223 462.772 26.8542C463.269 27.186 463.767 27.352 464.431 27.352C465.261 27.5179 465.758 27.5179 466.256 27.352Z" fill="white"/>
<path d="M418.133 48.0947C418.133 44.1121 411.828 44.1121 411.828 48.0947C411.828 52.2433 418.133 52.2433 418.133 48.0947Z" fill="white"/>
<path d="M382.622 82.9423C382.622 79.1257 376.648 79.1257 376.648 82.9423C376.648 86.9249 382.622 86.9249 382.622 82.9423Z" fill="white"/>
<path d="M390.587 71.1607C390.587 68.5057 386.604 68.5057 386.604 71.1607C386.604 73.8158 390.587 73.8158 390.587 71.1607Z" fill="white"/>
<path d="M529.148 47.5969C529.148 43.9462 523.506 43.9462 523.506 47.5969C523.506 51.2476 529.148 51.2476 529.148 47.5969Z" fill="white"/>
<path d="M547.734 103.353C547.734 100.034 542.589 100.034 542.589 103.353C542.589 106.672 547.734 106.672 547.734 103.353Z" fill="white"/>
<path d="M359.224 214.036C360.054 213.87 360.718 213.372 361.215 212.875C361.381 212.543 361.713 212.211 361.879 211.879C362.377 211.215 362.543 210.386 362.543 209.556C362.543 208.892 362.377 208.394 362.211 207.73C362.045 207.233 361.713 206.735 361.215 206.237C360.718 205.739 360.386 205.407 359.722 205.241C359.224 204.909 358.56 204.744 357.897 204.909L356.735 205.075C355.905 205.241 355.242 205.739 354.744 206.237C354.578 206.569 354.246 206.901 354.08 207.233C353.582 207.896 353.416 208.726 353.416 209.556C353.416 210.22 353.582 210.717 353.748 211.381C353.914 211.879 354.246 212.377 354.744 212.875C355.242 213.372 355.573 213.704 356.237 213.87C356.735 214.202 357.399 214.368 358.063 214.202L359.224 214.036Z" fill="white"/>
<path d="M395.233 212.377C395.233 208.56 389.425 208.56 389.425 212.377C389.425 216.193 395.233 216.193 395.233 212.377Z" fill="white"/>
<path d="M375.652 122.271C375.652 119.118 370.674 118.952 370.674 122.271C370.674 125.59 375.652 125.59 375.652 122.271Z" fill="white"/>
<path d="M363.539 176.036C364.368 176.036 365.198 175.704 365.862 175.372C366.36 175.04 366.691 174.708 367.189 174.376C367.521 173.878 367.853 173.546 368.185 173.049C368.683 172.385 368.849 171.555 368.849 170.725C369.015 170.228 369.015 169.564 368.849 169.066C368.849 168.568 368.683 167.904 368.351 167.407C368.019 166.577 367.687 165.913 367.023 165.415C366.526 165.083 366.194 164.752 365.696 164.42L364.202 163.756C363.705 163.756 363.041 163.59 362.543 163.59C361.713 163.59 360.884 163.756 360.054 164.088C359.224 164.42 358.56 164.752 358.063 165.415C357.067 166.577 356.901 166.743 356.403 168.236C355.739 170.228 356.403 172.717 357.897 174.044L358.063 174.21C358.56 174.874 359.224 175.206 360.054 175.538C360.552 175.87 361.049 176.036 361.713 176.036C362.377 176.202 362.875 176.202 363.539 176.036Z" fill="white"/>
<path d="M416.972 160.935C416.972 157.284 411.33 157.284 411.33 160.935C411.496 164.586 416.972 164.586 416.972 160.935Z" fill="white"/>
<path d="M433.234 152.97C433.234 149.319 427.592 149.319 427.592 152.97C427.758 156.62 433.234 156.62 433.234 152.97Z" fill="white"/>
<path d="M447.339 203.25C447.339 199.931 442.195 199.931 442.195 203.25C442.195 206.569 447.339 206.569 447.339 203.25Z" fill="white"/>
<path d="M483.182 142.018C483.182 138.699 478.038 138.699 478.038 142.018C478.038 145.337 483.182 145.337 483.182 142.018Z" fill="white"/>
<path d="M441.531 106.506C441.531 103.187 436.387 103.187 436.387 106.506C436.387 109.825 441.531 109.825 441.531 106.506Z" fill="white"/>
<path d="M408.509 118.288C408.509 114.969 403.365 114.969 403.365 118.288C403.365 121.607 408.509 121.607 408.509 118.288Z" fill="white"/>
<path d="M235.93 28.1817C236.593 28.0158 237.091 27.6839 237.423 27.1861C237.589 27.0201 237.755 26.6882 237.921 26.5223C238.253 26.0245 238.419 25.3607 238.419 24.6969C238.419 24.1991 238.253 23.7013 238.087 23.3694C237.921 22.8716 237.755 22.5397 237.423 22.2078C237.091 21.8759 236.759 21.544 236.261 21.544C235.764 21.3781 235.432 21.2122 234.934 21.2122C234.602 21.2122 234.27 21.3781 233.938 21.3781C233.274 21.5441 232.777 21.8759 232.445 22.3738C232.279 22.5397 232.113 22.8716 231.947 23.0375C231.615 23.5353 231.449 24.1991 231.449 24.8629C231.449 25.3607 231.615 25.8585 231.781 26.1904C231.947 26.6882 232.113 27.0201 232.445 27.352C232.777 27.6839 233.109 28.0158 233.606 28.0158C234.104 28.1817 234.436 28.3476 234.934 28.3476C235.266 28.3476 235.598 28.3477 235.93 28.1817Z" fill="white"/>
<path d="M202.243 27.6838C202.243 23.7013 195.938 23.7013 195.938 27.6838C195.938 31.6664 202.243 31.6664 202.243 27.6838Z" fill="white"/>
<path d="M166.732 62.5316C166.732 58.7149 160.758 58.7149 160.758 62.5316C160.758 66.3482 166.732 66.3482 166.732 62.5316Z" fill="white"/>
<path d="M174.697 50.7497C174.697 48.0947 170.714 48.0947 170.714 50.7497C170.714 53.4048 174.697 53.4048 174.697 50.7497Z" fill="white"/>
<path d="M159.762 101.86C159.762 98.7068 154.784 98.5408 154.784 101.86C154.784 105.013 159.762 105.013 159.762 101.86Z" fill="white"/>
<path d="M225.641 85.9294C225.641 82.6106 220.497 82.6106 220.497 85.9294C220.497 89.4142 225.641 89.4142 225.641 85.9294Z" fill="white"/>
<path d="M192.619 97.8772C192.619 94.5584 187.475 94.5584 187.475 97.8772C187.475 101.196 192.619 101.196 192.619 97.8772Z" fill="white"/>
<path d="M479.697 239.425C480.527 239.259 481.191 238.762 481.689 238.264C481.855 237.932 482.187 237.6 482.353 237.268C482.85 236.604 483.016 235.775 483.016 234.945C483.016 234.281 482.85 233.783 482.684 233.12C482.519 232.622 482.187 232.124 481.689 231.626C481.191 231.128 480.859 230.796 480.195 230.63C479.698 230.299 479.034 230.133 478.37 230.299L477.208 230.465C476.379 230.631 475.715 231.128 475.217 231.626C475.051 231.958 474.719 232.29 474.553 232.622C474.055 233.286 473.89 234.115 473.89 234.945C473.89 235.609 474.055 236.107 474.221 236.77C474.387 237.268 474.719 237.766 475.217 238.264C475.715 238.762 476.047 239.094 476.711 239.259C477.208 239.591 477.872 239.757 478.536 239.591L479.697 239.425Z" fill="white"/>
<path d="M484.012 201.425C484.842 201.425 485.672 201.093 486.335 200.761C486.833 200.429 487.165 200.097 487.663 199.765C487.995 199.267 488.327 198.935 488.659 198.438C489.156 197.774 489.322 196.944 489.322 196.114C489.488 195.617 489.488 194.953 489.322 194.455C489.322 193.957 489.156 193.293 488.825 192.796C488.493 191.966 488.161 191.302 487.497 190.804C486.999 190.472 486.667 190.141 486.169 189.809L484.676 189.145C484.178 189.145 483.514 188.979 483.017 188.979C482.187 188.979 481.357 189.145 480.527 189.477C479.698 189.809 479.034 190.141 478.536 190.804C477.541 191.966 477.375 192.132 476.877 193.625C476.213 195.617 476.877 198.106 478.37 199.433L478.536 199.599C479.034 200.263 479.698 200.595 480.527 200.927C481.025 201.259 481.523 201.425 482.187 201.425C482.851 201.591 483.514 201.591 484.012 201.425Z" fill="white"/>
<path d="M543.419 145.668C544.249 145.668 545.079 145.336 545.742 145.005C546.24 144.673 546.572 144.341 547.07 144.009C547.402 143.511 547.734 143.179 548.066 142.681C548.563 142.018 548.729 141.188 548.729 140.358C548.895 139.86 548.895 139.197 548.729 138.699C548.729 138.201 548.563 137.537 548.231 137.039C547.9 136.21 547.568 135.546 546.904 135.048C546.406 134.716 546.074 134.384 545.576 134.052L544.083 133.389C543.585 133.389 542.921 133.223 542.424 133.223C541.594 133.223 540.764 133.389 539.934 133.72C539.105 134.052 538.441 134.384 537.943 135.048C536.947 136.21 536.781 136.376 536.284 137.869C535.62 139.86 536.284 142.349 537.777 143.677L537.943 143.843C538.441 144.507 539.105 144.839 539.934 145.17C540.432 145.502 540.93 145.668 541.594 145.668C542.424 145.834 542.921 145.834 543.419 145.668Z" fill="white"/>
<path d="M537.611 207.067C537.611 203.416 531.969 203.416 531.969 207.067C531.969 210.717 537.611 210.717 537.611 207.067Z" fill="white"/>
<path d="M556.197 242.08C556.197 238.762 551.052 238.762 551.052 242.08C551.052 245.399 556.197 245.399 556.197 242.08Z" fill="white"/>
<path d="M193.117 464.94C189.3 464.94 189.3 470.748 193.117 470.748C196.933 470.748 196.933 464.94 193.117 464.94Z" fill="white"/>
<path d="M184.156 412.834C180.837 412.834 180.837 417.978 184.156 417.978C187.475 417.978 187.475 412.834 184.156 412.834Z" fill="white"/>
<path d="M220.331 380.476C220.165 379.646 219.667 378.982 219.169 378.484C218.837 378.318 218.506 377.987 218.174 377.821C217.51 377.323 216.68 377.157 215.85 377.157C215.187 377.157 214.689 377.323 214.025 377.489C213.527 377.655 213.029 377.987 212.532 378.484C212.034 378.982 211.702 379.314 211.536 379.978C211.204 380.476 211.038 381.139 211.204 381.803L211.37 382.965C211.536 383.795 212.034 384.458 212.532 384.956C212.864 385.122 213.195 385.454 213.527 385.62C214.191 386.118 215.021 386.284 215.85 386.284C216.514 386.284 217.012 386.118 217.676 385.952C218.174 385.786 218.671 385.454 219.169 384.956C219.667 384.458 219.999 384.126 220.165 383.463C220.497 382.965 220.663 382.301 220.497 381.637L220.331 380.476Z" fill="white"/>
<path d="M182.33 376.161C182.33 375.331 181.999 374.502 181.667 373.838C181.335 373.34 181.003 373.008 180.671 372.51C180.173 372.179 179.841 371.847 179.343 371.515C178.68 371.017 177.85 370.851 177.02 370.851C176.522 370.685 175.859 370.685 175.361 370.851C174.863 370.851 174.199 371.017 173.701 371.349C172.872 371.681 172.208 372.013 171.71 372.676C171.378 373.174 171.046 373.506 170.714 374.004L170.051 375.497C170.051 375.995 169.885 376.659 169.885 377.157C169.885 377.987 170.051 378.816 170.383 379.646C170.714 380.476 171.046 381.139 171.71 381.637C172.872 382.633 173.038 382.799 174.531 383.297C176.522 383.96 179.012 383.297 180.339 381.803L180.505 381.637C181.169 381.139 181.501 380.476 181.833 379.646C182.164 379.148 182.33 378.65 182.33 377.987C182.496 377.323 182.496 376.659 182.33 376.161Z" fill="white"/>
<path d="M187.972 322.562C184.322 322.562 184.322 328.204 187.972 328.204C191.457 328.204 191.457 322.562 187.972 322.562Z" fill="white"/>
<path d="M264.14 412.336C264.969 412.17 265.633 411.673 266.131 411.175C266.297 410.843 266.629 410.511 266.795 410.179C267.293 409.515 267.459 408.686 267.459 407.856C267.459 407.192 267.293 406.694 267.127 406.031C266.961 405.533 266.629 405.035 266.131 404.537C265.633 404.039 265.301 403.707 264.638 403.541C264.14 403.21 263.476 403.044 262.812 403.21L261.651 403.375C260.821 403.541 260.157 404.039 259.659 404.537C259.493 404.869 259.161 405.201 258.996 405.533C258.498 406.196 258.332 407.026 258.332 407.856C258.332 408.52 258.498 409.017 258.664 409.681C258.83 410.179 259.161 410.677 259.659 411.175C260.157 411.673 260.489 412.004 261.153 412.17C261.651 412.502 262.314 412.668 262.978 412.502L264.14 412.336Z" fill="white"/>
<path d="M234.436 439.883C234.436 436.066 228.628 436.066 228.628 439.883C228.628 443.699 234.436 443.699 234.436 439.883Z" fill="white"/>
<path d="M280.568 320.571C280.568 317.418 275.59 317.252 275.59 320.571C275.59 323.889 280.568 323.889 280.568 320.571Z" fill="white"/>
<path d="M268.454 374.336C269.284 374.336 270.113 374.004 270.777 373.672C271.275 373.34 271.607 373.008 272.105 372.676C272.437 372.178 272.768 371.847 273.1 371.349C273.598 370.685 273.764 369.855 273.764 369.025C273.93 368.528 273.93 367.864 273.764 367.366C273.764 366.868 273.598 366.204 273.266 365.707C272.934 364.877 272.602 364.213 271.939 363.715C271.441 363.383 271.109 363.052 270.611 362.72L269.118 362.056C268.62 362.056 267.956 361.89 267.458 361.89C266.629 361.89 265.799 362.056 264.969 362.388C264.139 362.72 263.476 363.052 262.978 363.715C261.982 364.877 261.816 365.043 261.318 366.536C260.655 368.528 261.318 371.017 262.812 372.344L262.978 372.51C263.476 373.174 264.139 373.506 264.969 373.838C265.467 374.17 265.965 374.336 266.629 374.336C267.292 374.502 267.79 374.502 268.454 374.336Z" fill="white"/>
<path d="M321.887 359.235C321.887 355.584 316.245 355.584 316.245 359.235C316.411 362.886 321.887 362.886 321.887 359.235Z" fill="white"/>
<path d="M338.149 351.27C338.149 347.619 332.507 347.619 332.507 351.27C332.673 354.92 338.149 354.92 338.149 351.27Z" fill="white"/>
<path d="M248.375 340.318C248.375 336.999 243.231 336.999 243.231 340.318C243.231 343.637 248.375 343.637 248.375 340.318Z" fill="white"/>
<path d="M388.098 340.318C388.098 336.999 382.954 336.999 382.954 340.318C382.954 343.637 388.098 343.637 388.098 340.318Z" fill="white"/>
<path d="M313.424 316.588C313.424 313.269 308.28 313.269 308.28 316.588C308.28 319.907 313.424 319.907 313.424 316.588Z" fill="white"/>
<path d="M384.613 437.725C385.443 437.56 386.107 437.062 386.604 436.564C386.77 436.232 387.102 435.9 387.268 435.568C387.766 434.904 387.932 434.075 387.932 433.245C387.932 432.581 387.766 432.083 387.6 431.42C387.434 430.922 387.102 430.424 386.604 429.926C386.107 429.428 385.775 429.096 385.111 428.931C384.613 428.599 383.949 428.433 383.286 428.599L382.124 428.765C381.294 428.931 380.631 429.428 380.133 429.926C379.967 430.258 379.635 430.59 379.469 430.922C378.971 431.586 378.805 432.415 378.805 433.245C378.805 433.909 378.971 434.407 379.137 435.07C379.303 435.568 379.635 436.066 380.133 436.564C380.631 437.062 380.962 437.394 381.626 437.56C382.124 437.891 382.788 438.057 383.452 437.891L384.613 437.725Z" fill="white"/>
<path d="M221.161 337.663C221.99 337.663 222.82 337.331 223.484 336.999C223.982 336.667 224.314 336.335 224.811 336.003C225.143 335.505 225.475 335.174 225.807 334.676C226.305 334.012 226.471 333.182 226.471 332.353C226.637 331.855 226.637 331.191 226.471 330.693C226.471 330.195 226.305 329.532 225.973 329.034C225.641 328.204 225.309 327.54 224.645 327.042C224.148 326.711 223.816 326.379 223.318 326.047L221.824 325.383C221.327 325.383 220.663 325.217 220.165 325.217C219.335 325.217 218.506 325.383 217.676 325.715C216.846 326.047 216.182 326.379 215.685 327.042C214.689 328.204 214.523 328.37 214.025 329.863C213.361 331.855 214.025 334.344 215.519 335.671L215.685 335.837C216.182 336.501 216.846 336.833 217.676 337.165C218.174 337.497 218.672 337.663 219.335 337.663C220.165 337.829 220.663 337.829 221.161 337.663Z" fill="white"/>
<path d="M448.335 343.968C449.164 343.968 449.994 343.637 450.658 343.305C451.156 342.973 451.488 342.641 451.985 342.309C452.317 341.811 452.649 341.479 452.981 340.981C453.479 340.318 453.645 339.488 453.645 338.658C453.811 338.16 453.811 337.497 453.645 336.999C453.645 336.501 453.479 335.837 453.147 335.339C452.815 334.51 452.483 333.846 451.819 333.348C451.322 333.016 450.99 332.684 450.492 332.353L448.998 331.689C448.501 331.689 447.837 331.523 447.339 331.523C446.509 331.523 445.68 331.689 444.85 332.021C444.02 332.353 443.356 332.684 442.859 333.348C441.863 334.51 441.697 334.676 441.199 336.169C440.535 338.16 441.199 340.65 442.693 341.977L442.859 342.143C443.356 342.807 444.02 343.139 444.85 343.471C445.348 343.802 445.846 343.968 446.509 343.968C447.173 344.134 447.837 344.134 448.335 343.968Z" fill="white"/>
<path d="M442.527 405.367C442.527 401.716 436.885 401.716 436.885 405.367C436.885 409.018 442.527 409.018 442.527 405.367Z" fill="white"/>
<path d="M362.211 368.196C362.211 364.877 357.067 364.877 357.067 368.196C356.901 371.515 362.211 371.515 362.211 368.196Z" fill="white"/>
<path d="M394.072 393.419C394.072 390.1 388.928 390.1 388.928 393.419C388.762 396.738 394.072 396.738 394.072 393.419Z" fill="white"/>
<path d="M600.835 -90.1346C587.228 -114.196 564.494 -132.45 535.122 -131.786C497.453 -130.956 483.182 -95.7766 458.291 -72.5448C443.356 -58.4398 421.286 -51.3043 403.53 -41.1819C383.783 -29.8979 364.534 -17.1204 347.11 -1.6878C314.586 27.186 288.533 67.3439 284.384 112.314C281.563 143.345 289.031 175.538 280.9 205.407C274.096 230.63 257.17 250.709 246.716 274.273C241.903 285.059 236.759 296.675 237.589 308.623C238.751 324.387 245.886 338.824 245.72 355.252C245.554 374.336 238.917 394.249 224.148 405.035C210.541 414.991 194.112 418.974 187.475 436.232C181.169 452.826 190.462 475.56 209.379 478.215C219.501 479.708 229.79 475.228 237.589 468.59C256.34 452.66 262.314 426.275 263.974 401.716C265.633 377.157 263.974 351.768 272.271 328.536C282.393 300.16 305.957 278.919 326.866 257.181C347.774 235.443 368.019 209.39 368.517 179.188C368.351 192.298 369.844 203.084 365.862 216.193C362.543 227.311 354.578 235.443 349.765 245.897C338.481 269.627 333.171 296.177 334.831 322.396C335.826 338.492 339.311 354.257 344.953 369.191C350.927 384.79 362.377 396.904 369.181 411.672C375.652 426.109 377.81 442.372 377.644 458.136C377.644 461.123 375.32 495.971 372.333 496.137C379.469 495.639 385.775 490.992 389.923 485.019C394.072 479.211 396.063 472.241 397.723 465.272C402.203 444.695 402.203 423.122 397.888 402.546C393.906 383.794 379.469 365.209 378.971 346.789C378.141 308.457 397.888 269.792 426.762 245.399C446.509 228.805 471.235 222.167 487.995 200.761C501.602 183.337 504.755 162.428 508.074 141.188C514.047 104.349 534.126 88.7503 561.341 66.1823C579.926 50.9157 595.525 31.8324 605.149 9.76216C619.586 -22.2645 618.259 -59.2695 600.835 -90.1346ZM597.018 -63.9159C579.428 -52.3 559.847 -44.0029 540.93 -35.042C524.502 -27.0768 508.571 -18.4479 492.973 -9.15517C468.911 5.1158 445.016 20.0505 422.946 37.1425C401.705 53.5707 380.133 72.654 364.202 94.3923C356.403 105.013 348.604 116.628 343.957 128.908C338.315 143.511 335.992 159.275 332.342 174.376C325.538 203.416 313.922 232.788 291.354 253.198C290.026 254.526 287.371 252.701 288.533 251.041C300.149 235.609 309.608 220.01 315.25 201.425C320.228 184.83 323.049 167.573 325.206 150.481C327.031 135.878 327.363 120.777 331.512 106.506C335.329 92.7329 341.8 79.9554 349.434 67.8417C365.862 42.2867 388.264 22.5396 412.325 4.45203C435.225 -12.9718 459.785 -27.9066 484.676 -42.5094C499.445 -51.1384 514.545 -58.7717 529.978 -66.0731C547.07 -74.2042 563.83 -83.1651 580.59 -91.794C599.175 -101.585 614.276 -75.5318 597.018 -63.9159Z" fill="url(#paint2_linear_27_2329)"/>
<path d="M351.757 -127.803C332.673 -136.1 304.795 -128.965 286.542 -119.174C264.471 -107.393 239.248 -103.078 217.51 -89.3049C181.003 -66.239 158.767 -24.0899 154.452 18.0592C149.64 66.0163 167.894 104.847 191.623 143.179C199.422 155.791 205.894 169.896 204.898 184.996C203.903 201.259 194.776 214.7 187.475 228.805C179.343 244.569 178.514 262.657 179.841 279.583C181.501 299.828 185.815 320.239 182.496 340.484C178.514 364.877 162.915 387.777 141.509 400.388C138.522 402.214 134.871 404.371 134.871 407.856C134.705 413.498 142.836 413.996 148.146 412.004C170.715 403.541 189.632 385.122 199.754 362.886C213.03 333.846 201.414 302.483 210.209 272.779C216.68 251.041 233.606 238.43 244.724 219.512C278.908 161.267 237.423 105.344 255.511 45.7715C267.458 6.11145 298.821 -23.5921 330.682 -47.8195C347.11 -60.4311 365.696 -75.1999 367.521 -95.6107C369.181 -113.366 362.543 -123.157 351.757 -127.803Z" fill="url(#paint3_linear_27_2329)"/>
<g clip-path="url(#clip0_27_2329)">
<path d="M188.189 287.525C190.197 291.285 194.932 292.657 198.768 290.837L207.07 286.929C209.048 286.004 210.457 284.333 211.146 282.423C211.776 280.603 213.065 279.082 214.803 278.246C216.541 277.411 217.44 275.382 216.661 273.622C215.852 271.802 213.724 271.026 211.926 271.861L211.536 272.04C209.858 272.846 207.94 272.876 206.171 272.309C204.313 271.682 202.215 271.772 200.297 272.667L191.815 276.665C187.709 278.604 186.031 283.527 188.189 287.525Z" fill="#85F8FF"/>
<path d="M214.983 297.431L212.345 291.911C211.206 289.495 208.299 288.48 205.872 289.614L185.312 299.311C189.058 307.188 198.529 310.559 206.441 306.8L212.675 303.876C215.103 302.712 216.122 299.818 214.983 297.431Z" fill="#85F8FF"/>
<path d="M197.51 260.732L200.147 266.252C201.286 268.669 200.267 271.563 197.839 272.697L177.28 282.394C173.533 274.517 176.89 265.089 184.802 261.359L191.036 258.435C193.464 257.271 196.341 258.316 197.51 260.732Z" fill="#85F8FF"/>
<path d="M188.279 279.559L193.973 291.553C195.292 294.328 194.093 297.64 191.336 298.953C188.549 300.266 185.222 299.072 183.903 296.327L178.209 284.333C176.89 281.558 178.089 278.246 180.846 276.934C183.633 275.621 186.96 276.784 188.279 279.559Z" fill="#85F8FF"/>
<path d="M131.274 314.139C134.391 320.703 149.706 319.987 156.3 316.884L164.512 313.006L153.183 289.226L144.971 293.105C138.407 296.208 128.157 307.546 131.274 314.139Z" fill="#85F8FF"/>
<path d="M180.067 280.037L188.668 298.088C190.617 302.145 188.878 307.009 184.772 308.918L168.768 316.497C164.692 318.436 159.807 316.705 157.888 312.618L149.287 294.567C147.339 290.509 149.077 285.646 153.183 283.736L169.187 276.188C173.233 274.248 178.119 275.979 180.067 280.037Z" fill="#85F8FF"/>
<path d="M171.387 306.309C176.74 304.426 179.547 298.58 177.655 293.251C175.764 287.921 169.891 285.127 164.538 287.01C159.185 288.893 156.378 294.739 158.269 300.068C160.161 305.398 166.033 308.192 171.387 306.309Z" fill="#014584"/>
<path d="M173.501 298.639C174.6 295.6 173.016 292.25 169.964 291.156C166.911 290.062 163.546 291.639 162.447 294.677C161.348 297.716 162.932 301.066 165.985 302.16C169.037 303.254 172.402 301.678 173.501 298.639Z" fill="#85F8FF"/>
<path d="M218.489 286.511C220.442 286.511 222.026 284.935 222.026 282.99C222.026 281.046 220.442 279.47 218.489 279.47C216.536 279.47 214.953 281.046 214.953 282.99C214.953 284.935 216.536 286.511 218.489 286.511Z" fill="white"/>
<path d="M218.519 269.385C219.988 268.699 220.617 266.938 219.928 265.476C219.239 264.014 217.47 263.388 216.002 264.074C214.533 264.76 213.904 266.521 214.593 267.983C215.312 269.445 217.051 270.071 218.519 269.385Z" fill="white"/>
</g>
<path d="M295.571 212.862C296.47 212.806 297.201 212.694 297.931 212.694C301.752 212.694 305.516 212.694 309.281 212.694C310.685 220.672 314.562 224.717 320.462 224.38C326.249 224.043 329.957 219.886 330.575 212.919C333.553 212.919 336.587 212.919 339.845 212.919C339.845 216.627 339.845 220.223 339.845 223.819C339.845 227.19 340.688 227.864 343.891 226.965C346.531 226.234 348.723 226.965 350.296 229.1C351.925 231.235 351.981 233.595 350.408 235.842C348.835 238.09 346.644 238.764 344.059 238.146C340.52 237.359 339.902 237.752 339.902 241.348C339.902 246.461 339.902 251.518 339.902 256.799C338.722 256.855 337.823 256.968 336.924 256.968C326.024 256.968 315.124 256.968 304.28 256.968C298.1 256.968 295.628 254.496 295.628 248.371C295.628 237.472 295.628 226.572 295.628 215.728C295.459 214.829 295.571 213.93 295.571 212.862Z" fill="white"/>
<path d="M339.621 208.143C335.744 208.143 332.036 208.143 328.327 208.143C325.406 208.199 324.619 209.154 325.462 211.963C326.305 214.773 325.574 216.964 323.327 218.593C321.136 220.223 318.776 220.223 316.585 218.593C314.281 216.908 313.719 214.66 314.393 211.907C315.18 208.929 314.506 208.087 311.303 208.087C306.19 208.087 301.078 208.087 295.628 208.087C295.571 206.963 295.459 206.008 295.459 204.996C295.459 194.265 295.459 183.477 295.459 172.69C295.459 166.285 297.875 163.869 304.168 163.813C315.068 163.813 325.968 163.813 336.868 163.813C337.71 163.813 338.553 163.813 339.564 163.813C339.564 168.532 339.564 173.027 339.564 177.747C335.8 177.859 332.148 178.87 330.125 182.354C329.002 184.264 328.159 186.68 328.215 188.871C328.271 194.602 332.485 198.142 339.621 198.928C339.621 201.85 339.621 204.772 339.621 208.143Z" fill="white"/>
<path d="M388.502 207.974C383.782 207.974 379.287 207.974 374.793 207.974C373.557 200.221 369.792 196.288 363.949 196.456C358.106 196.569 354.173 200.895 353.611 207.974C350.633 207.974 347.599 207.974 344.34 207.974C344.34 204.266 344.34 200.67 344.34 197.074C344.34 193.703 343.497 193.029 340.295 193.928C337.598 194.658 335.463 193.928 333.89 191.793C332.26 189.658 332.204 187.298 333.777 185.051C335.351 182.803 337.542 182.129 340.126 182.691C343.778 183.477 344.284 183.084 344.34 179.207C344.34 174.207 344.34 169.206 344.34 163.981C345.52 163.925 346.419 163.813 347.318 163.813C358.218 163.813 369.118 163.813 380.018 163.813C386.198 163.813 388.67 166.285 388.67 172.409C388.67 183.309 388.67 194.209 388.67 205.109C388.67 206.008 388.558 206.963 388.502 207.974Z" fill="white"/>
<g clip-path="url(#clip1_27_2329)">
<path d="M497.923 228.55L486.952 186.823L490.513 173.955L492.325 174.492C495.323 175.38 498.49 173.643 499.387 170.617C500.283 167.592 498.573 164.409 495.575 163.521L477.487 158.163C474.488 157.275 471.322 159.013 470.425 162.038C469.529 165.063 471.238 168.246 474.237 169.134L476.049 169.671L472.188 182.703L438.906 210.851C434.006 215.294 435.769 223.374 442.095 225.248L487.366 238.659C493.56 240.494 499.424 234.854 497.923 228.55Z" fill="white"/>
<path d="M483.113 232.083L447.826 221.63C442.917 220.176 441.524 213.868 445.345 210.408L458.835 199.107C462.399 196.149 466.669 194.195 471.217 193.481C477.791 192.463 484.033 196.554 485.736 203.026L491.291 224.199C492.521 229.12 487.957 233.518 483.113 232.083Z" fill="white"/>
<path d="M465.204 201.681C464.978 202.446 465.417 203.263 466.174 203.487C466.932 203.712 467.745 203.265 467.972 202.501C468.198 201.736 467.759 200.919 467.002 200.694C466.244 200.47 465.431 200.916 465.204 201.681Z" fill="#1188AC"/>
<path d="M478.748 225.399C480.151 225.475 481.355 224.391 481.437 222.977C481.52 221.563 480.449 220.355 479.046 220.279C477.643 220.203 476.439 221.287 476.357 222.701C476.275 224.115 477.345 225.323 478.748 225.399Z" fill="#1188AC"/>
<path d="M457.914 213.588C457.628 214.553 456.601 215.116 455.645 214.833C454.69 214.55 454.136 213.518 454.421 212.554C454.707 211.59 455.734 211.026 456.689 211.309C457.635 211.625 458.199 212.624 457.914 213.588Z" fill="#1188AC"/>
<path d="M478.113 211.58C480.406 212.259 482.82 210.934 483.505 208.621C484.19 206.307 482.887 203.881 480.595 203.202C478.302 202.523 475.888 203.848 475.202 206.161C474.517 208.475 475.82 210.901 478.113 211.58Z" fill="#1188AC"/>
<path d="M466.108 216.414C465.882 217.178 466.321 217.996 467.078 218.22C467.836 218.444 468.649 217.998 468.876 217.234C469.102 216.469 468.664 215.652 467.906 215.427C467.148 215.203 466.335 215.649 466.108 216.414Z" fill="#1188AC"/>
<path d="M456.734 220.11C456.902 219.545 456.588 218.91 455.995 218.734C455.435 218.568 454.803 218.887 454.626 219.485C454.458 220.051 454.772 220.686 455.365 220.862C455.968 221.004 456.567 220.675 456.734 220.11Z" fill="#1188AC"/>
</g>
<path d="M344.453 256.855C344.453 252.192 344.453 247.753 344.453 243.09C348.273 242.922 351.925 242.023 353.948 238.483C355.072 236.573 355.914 234.157 355.858 231.965C355.802 226.234 351.588 222.695 344.453 221.908C344.453 218.987 344.453 216.065 344.453 212.694C347.992 212.694 351.588 212.694 355.184 212.694C358.78 212.694 359.398 211.907 358.499 208.592C357.768 205.952 358.611 203.76 360.746 202.187C362.825 200.67 365.073 200.558 367.264 202.019C369.624 203.592 370.354 205.839 369.736 208.592C368.949 212.076 369.455 212.694 373.051 212.694C378.051 212.694 383.052 212.694 388.277 212.694C388.389 213.537 388.558 214.211 388.558 214.941C388.558 226.291 388.614 237.64 388.558 248.99C388.558 254.327 385.973 256.968 380.748 257.024C369.23 257.08 357.656 257.024 346.138 257.024C345.745 256.968 345.239 256.912 344.453 256.855Z" fill="white"/>
<path d="M324.5 83.2461C324.5 112.625 300.758 136.366 271.38 136.366C248.614 136.366 229.209 122.056 221.621 101.892C219.453 96.0382 218.26 89.7506 218.26 83.2461C218.26 53.8676 242.001 30.1263 271.38 30.1263C287.749 30.1263 302.384 37.4981 312.141 49.2061C319.838 58.4207 324.5 70.2372 324.5 83.2461Z" fill="white"/>
<path opacity="0.5" d="M324.499 84.0848C324.499 113.463 300.758 137.205 271.38 137.205C248.614 137.205 229.209 122.895 221.62 102.731C221.729 102.948 221.946 103.056 222.054 103.273C232.136 114.981 246.988 121.811 262.382 121.811C291.76 121.811 315.501 97.961 315.501 68.6909C315.501 62.2949 314.309 56.0072 312.141 50.0448C319.838 59.2595 324.499 71.0759 324.499 84.0848Z" fill="#BDBDBD"/>
<path d="M408.231 98.1046C406.868 96.6012 405.6 95.3797 404.613 94.0173C403.486 92.4669 404.002 89.789 405.459 88.0507C408.137 84.9499 409.734 81.4733 408.935 77.292C408.748 76.2584 408.231 75.3188 407.902 74.3322C412.6 71.2314 414.197 66.2514 415.513 61.1305C416.218 58.3116 416.499 55.3518 417.016 52.4859C417.157 51.7342 417.439 50.8886 417.956 50.2778C423.734 43.0897 434.822 43.6065 439.943 51.2644C440.554 52.204 440.977 53.0497 440.319 54.1772C439.99 54.694 439.943 55.3518 439.755 56.0565C437.265 56.1035 434.869 56.5263 432.896 58.2176C430.876 59.9089 430.077 62.211 429.654 64.654C428.48 64.8889 427.305 65.0299 426.178 65.3118C423.359 66.0165 421.01 67.5199 419.177 69.728C418.426 70.6206 418.426 71.4193 419.13 71.9831C420.023 72.6878 420.728 72.265 421.338 71.5133C423.453 69.0233 426.178 67.8018 429.513 67.5669C429.56 67.9427 429.654 68.2716 429.701 68.6005C429.795 69.5401 430.265 70.1039 431.204 70.0099C432.144 69.9159 432.52 69.2582 432.52 68.3656C432.52 67.332 432.473 66.3454 432.52 65.3118C432.802 61.1305 435.245 58.8754 439.473 58.8754C439.896 58.8754 440.319 58.8754 440.742 58.9223C441.728 59.0163 442.245 58.5465 442.433 57.5599C442.621 56.5733 442.95 55.5867 443.138 54.6001C443.889 51.3114 446.614 50.7006 449.245 50.2308C455.353 49.1503 461.366 52.4859 463.95 58.1237C464.749 59.9089 464.42 61.5533 463.809 63.2446C463.058 65.3118 461.601 66.9091 459.957 68.3186C458.548 69.5401 457.044 70.7146 455.729 72.0301C452.299 75.3657 451.923 78.5605 454.319 82.6948C454.789 83.4465 455.259 84.2452 455.588 85.0439C456.105 86.2184 455.823 86.9701 454.648 87.3929C453.802 87.7218 452.863 87.8627 451.923 88.0037C450.984 88.1446 450.185 88.4265 450.279 89.5541C450.326 90.6816 451.171 91.0105 452.111 90.8225C453.568 90.5407 455.071 90.3057 456.386 89.695C458.407 88.7554 459.158 86.6412 458.407 84.5271C458.031 83.4935 457.467 82.4599 456.856 81.5203C454.883 78.2316 455.165 76.3054 457.984 73.7684C459.581 72.312 461.272 70.9495 462.823 69.4931C464.655 67.8018 466.018 65.7346 466.769 63.3386C466.863 62.9627 467.38 62.5869 467.803 62.4929C475.367 60.9895 483.025 66.7212 483.729 74.3791C483.823 75.3657 483.823 76.3993 483.729 77.4329C483.682 78.1376 483.87 78.4665 484.481 78.7954C491.81 83.2116 493.455 92.279 488.24 99.0912C488.005 99.4201 487.817 99.9369 487.864 100.36C488.475 106.514 485.609 111.917 480.3 114.501C474.991 117.085 468.93 116.004 464.514 111.682C464.42 111.588 464.279 111.494 464.091 111.306C462.4 114.783 459.863 117.273 456.058 118.682C456.058 113.608 455.165 108.675 456.245 103.742C457.044 100.266 458.923 99.0912 462.447 99.7959C463.34 99.9839 464.232 100.313 465.125 100.595C468.32 101.628 470.998 100.548 472.172 97.3529C472.877 95.4267 473.206 93.2656 473.3 91.1984C473.441 88.0507 472.83 84.9499 471.232 82.178C470.622 81.0974 469.635 80.1578 468.695 79.3591C468.038 78.7954 467.145 78.7954 466.534 79.641C466.018 80.4397 466.299 81.0974 467.192 81.8022C467.85 82.3659 468.555 83.0237 468.93 83.8223C470.575 87.3459 471.045 91.1044 470.152 94.9099C470.058 95.3797 469.87 95.8025 469.682 96.2254C468.883 98.0576 467.85 98.4805 465.924 97.9637C464.373 97.5408 462.823 97.071 461.272 96.9301C457.843 96.6482 455.4 98.1986 454.084 101.393C452.91 104.212 452.863 107.172 452.91 110.179C452.957 112.857 453.098 115.488 453.239 118.166C453.239 118.541 453.239 118.917 453.239 119.387C448.728 119.857 445.017 118.4 441.728 115.3C439.614 120.374 435.997 123.662 430.547 124.367C425.097 125.072 420.681 122.958 417.392 118.494C415.325 119.951 413.117 120.937 410.674 121.219C407.244 121.642 404.143 120.844 401.324 118.964C400.949 118.682 400.62 118.025 400.62 117.555C400.573 110.884 403.486 105.528 408.607 101.44C410.392 99.9839 411.331 98.3865 411.472 96.0844C411.613 93.5005 413.915 91.3393 416.969 90.6346C419.318 90.1178 421.385 90.5876 423.171 92.185C424.157 93.0307 424.862 93.0776 425.52 92.3729C426.131 91.6682 425.943 90.9165 425.003 90.0708C419.553 85.1848 411.989 88.2386 409.499 92.7488C408.935 93.7354 408.888 94.9569 408.607 96.1314C408.372 96.6482 408.325 97.212 408.231 98.1046ZM423.969 114.783C426.365 114.548 427.822 113.702 428.855 112.152C429.09 111.776 428.996 110.977 428.714 110.602C428.48 110.273 427.775 110.226 427.258 110.179C427.023 110.179 426.741 110.508 426.553 110.743C425.144 112.199 424.016 112.293 422.513 110.977C421.949 110.508 421.479 109.897 421.057 109.286C419.036 106.138 415.889 105.011 412.412 104.541C411.613 104.447 411.05 104.87 410.862 105.669C410.721 106.467 411.097 107.031 411.895 107.266C412.365 107.407 412.882 107.454 413.399 107.548C415.654 107.971 417.486 109.004 418.754 110.977C419.412 111.917 420.211 112.857 421.151 113.514C422.09 114.172 423.265 114.501 423.969 114.783ZM434.634 110.179C434.587 110.179 434.587 110.179 434.634 110.179C434.587 109.756 434.587 109.333 434.587 108.91C434.869 104.541 437.03 102.192 441.305 101.769C442.151 101.675 443.044 101.769 443.889 101.816C444.829 101.91 445.534 101.628 445.722 100.642C445.91 99.7959 445.252 98.9973 444.171 98.9973C442.292 99.0442 440.272 98.9973 438.534 99.5141C432.473 101.346 431.298 107.031 431.956 111.682C432.003 112.105 432.802 112.716 433.319 112.763C434.07 112.857 434.634 112.293 434.634 111.447C434.634 111.024 434.634 110.602 434.634 110.179Z" fill="#85F8FF"/>
<path d="M381.404 62.493C384.975 59.6741 388.874 58.8285 393.244 59.6741C394.042 56.7613 395.546 54.3183 397.848 52.439C402.17 48.9154 408.466 48.3986 413.258 51.1705C413.774 51.4524 414.244 51.7343 414.103 52.486C413.399 57.7479 412.506 62.9158 410.11 67.7079C409.264 69.3992 408.184 70.9496 406.445 71.8422C405.835 72.1711 405.318 72.1241 404.566 71.8892C402.546 71.2315 400.479 70.6677 398.365 70.1979C397.19 69.963 396.438 70.5268 396.391 71.4664C396.344 72.5939 397.096 72.8288 398.036 73.0168C399.774 73.3926 401.606 73.7215 403.204 74.3792C405.741 75.4598 406.68 77.6679 406.211 80.3458C405.835 82.507 404.895 84.4332 403.345 86.0305C400.902 88.6145 400.479 91.6213 401.794 94.816C402.264 95.9436 403.251 96.7892 404.049 97.7758C404.613 98.4336 405.177 99.0443 405.835 99.749C401.137 103.883 398.224 108.91 397.378 115.206C396.814 114.125 396.297 112.998 395.687 111.87C394.794 112.058 393.854 112.293 392.868 112.434C384.693 113.655 377.411 107.454 377.317 99.1383C377.317 98.4336 377.082 98.0577 376.518 97.6349C369.236 92.467 368.814 82.0371 375.626 76.2115C376.284 75.6477 376.518 75.1309 376.471 74.2383C376.143 70.7147 377.035 67.52 379.196 64.7011C384.176 66.3924 387.042 71.5604 386.009 76.8692C385.68 78.5136 385.304 80.1579 385.022 81.8022C384.458 85.1379 386.197 88.0977 389.297 89.3192C390.049 89.6011 390.707 89.5541 391.13 88.8024C391.505 88.0507 391.317 87.346 390.613 86.8762C390.425 86.7353 390.19 86.6413 390.002 86.5473C387.982 85.3728 387.418 84.1513 387.888 81.8492C388.217 80.1109 388.64 78.4196 388.921 76.6813C389.955 71.1375 387.653 67.0502 383.331 63.8085C382.767 63.4326 382.156 63.0098 381.404 62.493ZM390.942 104.823C390.942 105.105 390.895 105.387 390.895 105.622C390.801 106.561 391.27 107.172 392.163 107.266C393.15 107.36 393.573 106.749 393.714 105.904C394.042 103.367 393.62 101.065 391.693 99.2323C390.002 97.6349 388.029 96.7892 385.68 96.7422C382.203 96.6483 381.123 95.3328 381.498 91.8562C381.592 91.0106 381.264 90.3528 380.418 90.1649C379.572 89.977 379.008 90.4938 378.727 91.2924C377.787 94.1113 379.008 97.306 381.733 98.5275C383.049 99.0913 384.552 99.3732 386.009 99.5141C389.015 99.796 391.083 101.91 390.942 104.823Z" fill="#85F8FF"/>
<path d="M439.332 123.521C440.507 122.159 441.493 120.984 442.574 119.763C450.984 124.32 458.36 122.817 464.655 115.817C466.158 116.521 467.615 117.32 469.118 117.837C470.669 118.354 472.313 118.541 474.051 118.917C473.159 123.052 471.091 126.575 467.897 129.488C464.749 132.354 461.038 134.092 456.809 134.656C457.279 136.817 457.89 138.884 458.125 140.998C458.407 143.911 458.36 146.824 458.36 149.784C458.36 150.958 457.608 151.616 456.668 151.428C455.588 151.193 455.447 150.395 455.541 149.455C456.058 144.757 455.4 140.153 453.99 135.69C453.896 135.361 453.427 134.891 453.098 134.844C449.339 134.468 446.332 132.683 443.983 129.864C442.292 127.797 440.836 125.636 439.332 123.521Z" fill="#85F8FF"/>
<path d="M295.503 350.44C295.503 363.881 284.716 374.667 271.275 374.667C260.821 374.667 251.86 368.03 248.375 358.737C247.38 356.082 246.882 353.427 246.882 350.44C246.882 336.999 257.834 326.213 271.109 326.213C278.245 326.213 284.882 329.365 289.197 334.344C293.18 338.658 295.503 344.3 295.503 350.44Z" fill="#4DBBFA"/>
<path opacity="0.5" d="M295.502 350.44C295.502 363.881 284.716 374.667 271.275 374.667C260.821 374.667 251.86 368.03 248.375 358.737C253.021 363.881 259.659 366.868 266.463 366.868C279.904 366.868 290.69 355.916 290.69 342.641C290.69 339.82 290.192 336.999 289.197 334.344C293.179 338.658 295.502 344.3 295.502 350.44Z" fill="black"/>
<path d="M504.091 308.623C498.947 310.946 493.637 313.269 488.161 315.592C479.2 319.409 469.741 323.226 460.117 327.042C445.68 332.684 431.409 337.829 418.133 342.309C417.138 342.641 416.308 342.973 415.312 343.305C414.317 341.977 413.321 340.484 412.325 338.99C410.832 336.501 409.504 334.012 408.509 331.191C406.849 326.71 405.688 322.23 405.356 317.584C405.19 316.422 405.19 315.26 405.19 314.099C404.858 293.854 416.806 274.771 436.719 266.971C452.317 260.832 469.077 263.321 482.187 271.784C485.838 274.107 488.99 276.928 491.977 280.247C492.807 281.077 493.471 282.072 494.135 282.902C496.956 286.553 499.279 290.535 500.938 295.016C502.598 299.496 503.759 304.142 504.091 308.623Z" fill="#CABA2A"/>
<path d="M504.257 312.108C504.589 332.352 492.641 351.436 472.728 359.235C452.815 367.034 430.911 361.06 417.635 345.96C416.806 345.13 416.142 344.134 415.478 343.305C416.308 342.973 417.304 342.641 418.299 342.309C431.741 337.829 445.846 332.684 460.282 327.042C469.907 323.392 479.2 319.409 488.327 315.592C493.803 313.269 499.113 310.946 504.257 308.623C504.257 309.784 504.257 310.946 504.257 312.108Z" fill="#CABA2A"/>
<path d="M491.811 280.247C492.641 281.077 493.305 282.072 493.969 282.902C509.069 277.924 523.174 273.775 535.454 270.622C563.498 263.653 572.293 265.146 572.957 266.806C573.621 268.631 568.31 275.601 542.921 289.374C531.803 295.513 518.694 301.985 504.091 308.457C490.484 314.597 475.549 320.903 460.117 326.876C444.684 332.85 429.583 338.326 415.312 343.139C400.212 348.117 386.107 352.265 373.827 355.418C345.783 362.388 337.154 360.894 336.324 359.069C335.66 357.244 340.971 350.274 366.36 336.501C377.478 330.361 390.587 323.889 405.19 317.418C405.024 316.256 405.024 315.095 405.024 313.933C366.194 331.357 329.687 351.27 333.171 360.397C336.656 369.523 376.98 359.401 417.47 345.96C432.736 340.981 448.003 335.339 461.278 330.195C474.553 325.051 489.654 318.745 504.257 312.108C543.253 294.684 579.594 274.771 576.11 265.644C572.625 256.683 532.301 266.64 491.811 280.247Z" fill="white"/>
<path d="M180.805 135.878C179.809 140.524 178.15 145.005 175.993 148.987C169.189 147.826 162.054 146.664 154.752 145.337C146.455 143.843 137.826 142.018 129.031 140.192C112.769 136.708 97.1706 133.057 82.7337 129.074C82.4018 124.594 82.7337 119.782 83.7294 115.135C84.725 110.489 86.3844 106.008 88.5417 102.026C89.0395 101.03 89.7032 100.035 90.367 99.0389C101.153 81.9469 121.73 72.4882 142.639 76.9687C152.097 78.96 160.228 83.4404 166.534 89.7461C174.499 97.3795 179.809 107.502 181.303 118.454C181.469 119.616 181.635 120.777 181.635 121.939C182.133 126.419 181.801 131.232 180.805 135.878Z" fill="#CABA2A"/>
<path d="M175.993 148.987C175.495 149.983 174.831 150.978 174.333 151.974C163.547 169.066 142.97 178.525 122.062 174.044C105.468 170.56 92.5243 158.944 86.5504 144.341C85.0569 140.69 83.8953 136.708 83.2315 132.559C83.0656 131.397 82.8997 130.236 82.8997 129.074C97.3366 132.891 112.935 136.708 129.197 140.192C137.826 142.018 146.455 143.677 154.918 145.336C162.054 146.664 169.189 147.826 175.993 148.987Z" fill="#CABA2A"/>
<path d="M181.469 118.454C181.635 119.616 181.801 120.777 181.801 121.939C197.233 126.087 211.338 130.236 223.286 134.55C250.5 144.175 256.972 150.149 256.64 151.974C256.308 153.8 247.845 156.62 219.138 154.297C206.526 153.302 191.923 151.476 176.159 148.987C161.39 146.664 145.625 143.677 129.363 140.192C113.101 136.708 97.5024 133.057 83.0655 129.074C67.6329 124.926 53.5279 120.611 41.5801 116.463C14.3657 106.838 7.89396 100.864 8.22584 99.0388C8.55773 97.2135 17.0207 94.3924 45.7286 96.7156C58.3402 97.7113 72.943 99.5366 88.7075 102.026C89.2053 101.03 89.8691 100.034 90.5328 99.0388C48.3837 92.2352 7.06425 88.9164 5.07295 98.375C3.08165 108 42.2439 121.607 83.3973 132.559C98.8299 136.708 114.76 140.358 128.699 143.345C142.638 146.332 158.569 149.319 174.499 151.808C216.648 158.612 257.968 162.097 259.959 152.472C261.784 143.179 222.622 129.406 181.469 118.454Z" fill="white"/>
<path d="M169.741 220.322C161.874 226.992 151.357 229.984 142.293 234.431C132.289 239.305 122.968 245.803 118.522 256.406C120.916 250.677 122.37 244.606 125.106 238.963C127.842 233.234 131.092 227.676 134.854 222.545C141.524 213.396 149.561 202.451 161.276 199.629C166.321 198.432 172.477 198.518 175.042 203.734C178.035 209.634 174.786 215.961 170.254 219.98C170.083 220.066 169.912 220.237 169.741 220.322Z" fill="url(#paint4_linear_27_2329)"/>
<path d="M164.012 204.076C155.547 204.076 155.461 217.329 164.012 217.329C172.477 217.329 172.477 204.076 164.012 204.076Z" fill="white"/>
<path d="M592.372 41.6229C574.616 50.7497 553.376 51.7453 534.292 56.2257C513.218 61.038 492.807 69.1692 479.698 87.2568C486.833 77.4663 492.143 66.6801 499.777 57.0555C507.41 47.4308 516.039 38.3041 525.332 30.3389C541.926 16.0679 562.005 -1.19002 585.402 -1.35596C595.359 -1.5219 606.975 1.46505 609.63 12.4172C612.617 24.8628 603.656 35.4831 593.534 40.9591C593.368 41.1251 592.87 41.291 592.372 41.6229Z" fill="url(#paint5_linear_27_2329)"/>
<path d="M553.673 84.3514C549.285 85.4111 543.635 81.0661 541.126 74.7031L521.752 25.5621L537.744 21.7001L557.118 70.8411C559.6 77.2105 558.061 83.2917 553.673 84.3514Z" fill="white"/>
<path d="M535.754 47.4218L529.931 40.5608C529.931 40.5608 529.023 36.9833 532.216 35.9948C535.392 34.9642 540.792 37.7709 540.792 37.7709L535.754 47.4218Z" fill="white"/>
<path d="M550.809 77.6032C547.718 78.35 543.758 75.2771 542.006 70.8313C542.006 70.8313 533.578 49.4457 529.726 39.6726C534.856 42.9246 534.945 34.0465 539.599 33.5938C542.469 40.8757 553.208 68.1251 553.208 68.1251C554.96 72.5709 553.874 76.8629 550.809 77.6032Z" fill="white"/>
<path d="M545.773 31.4029L526.31 35.9126C523.865 36.4793 520.681 34.1632 519.264 30.7132C517.865 27.3105 518.738 24.0028 521.184 23.4361L540.647 18.9264C543.126 18.3519 546.295 20.7231 547.694 24.1258C549.111 27.5758 548.253 30.8284 545.773 31.4029Z" fill="white"/>
<path d="M540.071 49.4634C540.527 48.2331 539.555 46.5246 537.899 45.6476C536.243 44.7705 534.531 45.0569 534.075 46.2872C533.619 47.5176 534.591 49.226 536.247 50.1031C537.903 50.9802 539.615 50.6938 540.071 49.4634Z" fill="#DFDFDF"/>
<path d="M551.296 68.0327C550.819 66.2808 549.39 64.8681 548.105 64.8772C546.82 64.8863 546.165 66.3138 546.642 68.0657C547.12 69.8175 548.548 71.2303 549.834 71.2212C551.119 71.2121 551.774 69.7845 551.296 68.0327Z" fill="#DFDFDF"/>
<path d="M543.715 68.1636C544.061 68.9813 543.868 69.786 543.227 69.93C542.618 70.067 541.823 69.5294 541.459 68.6708C541.096 67.8122 541.306 67.0484 541.946 66.9045C542.556 66.7674 543.369 67.3459 543.715 68.1636Z" fill="#DFDFDF"/>
<path d="M549.31 60.4868C549.657 61.3045 549.463 62.1092 548.823 62.2531C548.213 62.3902 547.418 61.8525 547.055 60.9939C546.708 60.1762 546.902 59.3715 547.542 59.2276C548.152 59.0905 548.947 59.6282 549.31 60.4868Z" fill="#DFDFDF"/>
<path d="M545.734 56.7977C546.626 56.5971 546.939 55.4643 546.432 54.2675C545.925 53.0708 544.791 52.2633 543.899 52.4639C543.007 52.6645 542.694 53.7973 543.201 54.994C543.708 56.1908 544.842 56.9983 545.734 56.7977Z" fill="#DFDFDF"/>
<path d="M539.744 61.6408C540.637 61.4402 540.949 60.3074 540.442 59.1107C539.936 57.9139 538.802 57.1064 537.909 57.307C537.017 57.5077 536.705 58.6404 537.211 59.8372C537.718 61.0339 538.852 61.8414 539.744 61.6408Z" fill="#DFDFDF"/>
<path d="M544.881 47.1572C545.773 46.9566 546.085 45.8238 545.579 44.627C545.072 43.4303 543.938 42.6228 543.046 42.8234C542.153 43.024 541.841 44.1568 542.348 45.3535C542.854 46.5503 543.988 47.3578 544.881 47.1572Z" fill="#DFDFDF"/>
<path d="M219.667 38.6361C209.711 45.1078 197.099 46.9331 185.981 50.7498C173.701 54.8983 162.086 60.8722 155.282 72.4881C158.933 66.1823 161.588 59.5447 165.57 53.4049C169.553 47.265 174.199 41.2911 179.344 35.981C188.47 26.5223 199.422 15.0724 213.362 13.5789C219.335 12.9151 226.305 13.9108 228.628 20.3825C231.117 27.518 226.471 34.4875 220.663 38.3042C219.999 38.4701 219.833 38.6361 219.667 38.6361Z" fill="url(#paint6_linear_27_2329)"/>
<path d="M215.519 19.055C205.728 17.7275 203.737 32.9941 213.527 34.3216C223.152 35.6491 225.309 20.3825 215.519 19.055Z" fill="white"/>
<path d="M147.649 38.6361C137.692 45.1078 125.081 46.9331 113.963 50.7498C101.683 54.8983 90.067 60.8722 83.2634 72.4881C86.9141 66.1823 89.5692 59.5447 93.5518 53.4049C97.5344 47.265 102.181 41.2911 107.325 35.981C116.452 26.5223 127.404 15.0724 141.343 13.5789C147.317 12.9151 154.286 13.9108 156.61 20.3825C159.099 27.518 154.452 34.4875 148.644 38.3042C147.981 38.4701 147.815 38.6361 147.649 38.6361Z" fill="url(#paint7_linear_27_2329)"/>
<path d="M143.5 19.055C133.71 17.7275 131.719 32.9941 141.509 34.3216C151.3 35.6491 153.291 20.3825 143.5 19.055Z" fill="white"/>
<path d="M180.339 26.6881C180.339 40.1294 169.553 50.9156 156.112 50.9156C145.657 50.9156 136.697 44.2779 133.212 34.9852C132.216 32.3302 131.718 29.6751 131.718 26.6881C131.718 13.2469 142.671 2.46069 155.946 2.46069C163.081 2.46069 169.719 5.61358 174.033 10.5918C178.016 14.9063 180.339 20.5483 180.339 26.6881Z" fill="#4DBBFA"/>
<path opacity="0.5" d="M180.339 26.6881C180.339 40.1294 169.553 50.9156 156.112 50.9156C145.658 50.9156 136.697 44.2779 133.212 34.9852C137.858 40.1294 144.496 43.1163 151.3 43.1163C164.741 43.1163 175.527 32.1642 175.527 18.8889C175.527 16.0679 175.029 13.2469 174.034 10.5918C178.016 14.9063 180.339 20.5483 180.339 26.6881Z" fill="black"/>
</g>
<path d="M242.87 543.513C242.87 543.513 247.02 542.782 249.339 540.221C251.658 537.66 253.366 532.173 255.319 533.758C257.272 535.344 259.346 538.88 258.004 543.513C256.661 548.147 251.169 553.268 251.169 553.268L237.012 545.098L242.87 543.513Z" stroke="#263238" stroke-miterlimit="10"/>
<path d="M206.012 633.745L196.492 632.77L207.721 623.991L206.012 633.745Z" fill="white" stroke="#263238" stroke-miterlimit="10"/>
<path d="M211.26 543.148L210.894 550.586C210.894 550.586 203.205 581.679 203.693 582.776C204.181 583.874 203.083 616.796 203.937 620.576C204.669 624.356 206.012 633.745 206.012 633.745C206.012 633.745 216.508 633.38 221.268 630.941C226.028 628.502 232.374 622.893 232.374 622.893L228.591 608.017C228.591 608.017 232.252 605.7 233.961 601.92C235.669 598.14 236.28 594.238 236.28 594.238L239.331 593.263C239.331 593.263 243.358 595.336 245.311 593.507C247.264 591.556 245.677 588.873 245.067 587.532C244.457 586.191 242.382 581.435 242.382 581.435C242.382 581.435 244.701 584.849 247.02 584.484C249.339 584.118 249.827 584.24 250.071 582.776C250.315 581.191 249.095 577.045 249.095 577.045C249.095 577.045 253.488 578.753 255.197 577.045C256.906 575.338 256.295 573.387 256.173 572.9C255.929 572.29 250.803 560.706 250.803 560.706C250.803 560.706 260.933 563.023 261.665 563.023C262.398 563.023 264.961 562.413 265.693 559.731C266.425 557.048 258.004 553.756 251.047 548.635C243.969 543.513 236.158 541.44 232.862 541.44C229.445 541.44 212.847 540.343 211.26 543.148Z" fill="white" stroke="#263238" stroke-miterlimit="10"/>
<path d="M215.898 550.342C215.165 550.342 238.476 552.78 240.307 553.39C242.26 554 249.339 559.487 249.339 559.487" stroke="#263238" stroke-miterlimit="10"/>
<path d="M214.311 560.462C214.311 560.462 237.988 564.486 240.063 565.218C242.138 565.949 248.85 577.045 248.85 577.045" stroke="#263238" stroke-miterlimit="10"/>
<path d="M211.87 570.827C211.87 570.827 233.472 575.826 235.547 576.802C237.622 577.777 240.917 580.582 240.917 580.582" stroke="#263238" stroke-miterlimit="10"/>
<path d="M215.654 587.654L218.705 585.337L231.398 585.703L238.11 591.8" stroke="#263238" stroke-miterlimit="10"/>
<path d="M196.492 632.77L198.689 641.915C198.689 641.915 203.937 643.256 214.433 639.111C224.929 634.965 235.425 627.283 235.425 627.283L234.571 620.698C234.449 620.576 216.264 633.867 196.492 632.77Z" fill="white" stroke="#263238" stroke-miterlimit="10"/>
<path d="M235.791 625.088C235.791 625.088 222 633.867 212.114 636.916C202.228 639.964 191.732 640.208 191.732 640.208C191.732 640.208 203.815 695.81 207.72 704.346C211.626 712.881 217.85 737.39 217.85 737.39H287.417C287.417 737.39 246.043 657.523 244.701 651.426C243.236 645.451 235.791 625.088 235.791 625.088Z" fill="url(#paint8_linear_27_2329)"/>
<path d="M264.106 418.652C264.106 418.652 251.047 448.892 252.756 452.793C254.343 456.695 260.933 462.914 258.004 467.06C255.075 471.328 238.11 485.35 241.406 492.422C244.701 499.617 253.122 499.86 253.122 499.86C253.122 499.86 251.535 509.25 253.732 511.566C256.051 513.883 256.051 513.883 256.051 513.883C256.051 513.883 256.051 518.76 257.638 521.077C259.224 523.394 263.496 525.345 263.496 525.345C263.496 525.345 255.319 537.417 257.028 541.318C258.614 545.22 277.287 551.439 285.098 553.39C292.909 555.341 306.945 552.78 306.945 552.78L310.85 572.29L384.811 529.003L373.461 499.982C373.461 499.982 392.988 482.424 393.965 456.086C394.941 429.748 386.764 404.995 372.118 396.216C357.472 387.436 337.579 389.021 337.579 389.021C337.579 389.021 326.472 376.34 308.532 382.559C290.469 388.777 264.106 418.652 264.106 418.652Z" fill="white" stroke="#263238" stroke-miterlimit="10"/>
<path d="M258.248 452.55C258.248 452.55 258.248 456.086 262.52 454.501C266.791 452.915 268.988 449.989 272.283 450.599C275.579 451.208 279.728 452.915 277.165 448.282C274.602 443.77 268.378 445.721 264.839 447.306C261.177 448.892 258.248 452.55 258.248 452.55Z" fill="#263238" stroke="#263238" stroke-miterlimit="10"/>
<path d="M266.669 465.231C268.012 472.059 267.768 477.912 266.059 478.278C264.35 478.644 261.91 473.279 260.567 466.45C259.225 459.622 259.469 453.769 261.177 453.403C262.886 453.037 265.327 458.281 266.669 465.231Z" stroke="#263238" stroke-width="2" stroke-miterlimit="10"/>
<path d="M266.425 462.67L328.547 458.402" stroke="#263238" stroke-width="2" stroke-miterlimit="10"/>
<path d="M257.272 503.64C257.272 503.64 251.047 502.299 249.827 508.884C248.484 515.346 254.343 518.029 256.051 518.029C257.76 518.029 260.567 516.078 265.815 518.395C271.063 520.711 275.579 523.638 275.579 529.125C275.579 534.612 273.626 538.514 269.354 538.27C265.083 537.904 262.154 530.1 259.957 531.076C257.638 532.051 251.78 541.197 255.685 547.293C259.591 553.512 285.709 565.218 294.13 564.852C302.551 564.486 334.161 537.173 338.433 527.052C342.705 516.931 337.091 512.786 336.114 509.737C335.138 506.811 325.374 482.058 325.374 474.864C325.374 467.67 329.89 451.452 339.043 450.721C348.197 449.989 353.689 469.621 350.76 476.815C347.831 484.009 343.315 487.179 343.315 487.179C343.315 487.179 341.362 508.03 346.854 511.566C352.346 515.102 367.114 519.736 373.949 519.98C380.783 520.346 383.346 521.321 387.008 514.493C390.547 507.664 384.445 504.738 386.398 500.836C388.35 496.934 404.339 477.668 405.925 457.183C407.512 436.698 402.386 420.115 393.598 407.068C384.811 394.021 365.894 381.949 359.669 380.974C353.445 379.998 346.366 377.437 346.366 377.437C346.366 377.437 353.201 374.511 347.953 369.999C342.705 365.488 332.331 363.171 315.366 368.658C298.402 374.145 291.811 380.852 291.811 380.852C291.811 380.852 292.787 372.072 283.024 375.974C273.26 379.876 256.295 397.435 258.614 408.897C260.933 420.359 266.059 419.993 273.26 417.676C280.461 415.359 291.567 410.482 296.449 411.214C301.331 411.823 304.626 412.189 295.839 419.627C286.929 427.187 274.846 434.991 281.315 438.527C287.783 442.063 306.091 452.184 308.409 459.744C310.728 467.182 300.598 519.614 297.059 525.833C293.52 532.051 286.685 534.002 282.413 529.369C278.142 524.857 274.602 513.151 267.402 507.908C260.201 502.665 257.272 503.64 257.272 503.64Z" fill="url(#paint9_linear_27_2329)"/>
<path d="M361.502 394.904C363.578 394.904 365.307 394.873 367.005 394.904C368.986 394.936 370.369 396.162 370.369 397.891C370.338 399.558 368.954 400.847 366.973 400.878C365.338 400.91 363.735 400.941 362.1 400.878C361.125 400.847 360.779 401.193 360.591 402.167C359.742 406.852 359.081 411.6 357.761 416.128C356.817 419.398 355.308 422.637 353.39 425.404C349.365 431.252 342.668 431.409 337.92 426.127C336.726 424.806 336.694 423.36 337.826 422.039C338.895 420.75 340.153 420.593 341.725 421.631C342.48 422.102 343.14 422.7 343.894 423.203C345.718 424.397 347.133 424.335 348.422 422.574C349.68 420.907 350.969 419.115 351.504 417.166C352.887 412.198 353.862 407.104 354.994 402.073C355.182 401.193 354.805 400.815 353.893 400.847C352.384 400.878 350.843 400.878 349.334 400.847C347.416 400.815 346.127 399.621 346.095 397.954C346.064 396.256 347.416 394.936 349.397 394.904C351.126 394.873 352.856 394.841 354.585 394.904C355.591 394.936 355.843 394.527 356.063 393.584C357.006 389.59 357.855 385.534 359.238 381.667C359.993 379.655 361.502 377.768 363.043 376.196C365.338 373.869 368.325 373.492 371.344 374.592C374.551 375.756 376.658 378.082 377.381 381.478C377.632 382.704 377.507 383.868 376.469 384.78C375.117 385.974 373.23 385.723 372.319 384.151C371.941 383.491 371.69 382.704 371.312 382.013C370.023 379.56 367.822 379.277 366.03 381.384C363.892 383.899 363.075 387.012 362.351 390.125C362.005 391.634 361.817 393.143 361.502 394.904Z" fill="white"/>
<path d="M378.01 421.253C376.815 422.983 375.84 424.429 374.834 425.875C374.457 426.441 374.079 427.007 373.702 427.573C372.727 428.925 371.501 429.271 370.369 428.516C369.237 427.762 369.049 426.441 369.929 425.089C371.344 422.951 372.696 420.782 374.237 418.738C375.117 417.574 375.117 416.757 374.237 415.593C372.727 413.581 371.375 411.443 369.992 409.368C369.049 407.921 369.174 406.569 370.338 405.783C371.533 404.997 372.759 405.343 373.765 406.852C375.086 408.802 376.375 410.72 377.853 412.889C378.356 412.292 378.764 411.915 379.047 411.474C380.179 409.839 381.248 408.173 382.38 406.538C383.229 405.343 384.456 405.06 385.525 405.752C386.625 406.444 386.94 407.796 386.122 409.053C384.613 411.38 383.103 413.707 381.468 415.939C380.808 416.883 380.871 417.543 381.5 418.423C383.009 420.561 384.456 422.762 385.902 424.932C386.877 426.378 386.751 427.762 385.619 428.516C384.456 429.334 383.166 428.957 382.16 427.51C380.871 425.498 379.55 423.517 378.01 421.253Z" fill="white"/>
<path d="M343.315 487.301C343.315 487.301 335.87 489.252 334.528 489.252" stroke="#263238" stroke-miterlimit="10"/>
<path d="M300.476 582.411C300.476 582.411 285.953 594.238 283.878 599.238C281.803 604.237 282.291 613.748 282.291 614.723C282.291 615.577 271.185 623.991 267.279 635.331C263.374 646.671 263.13 660.815 263.13 660.815L288.394 614.967L302.673 585.947L300.476 582.411Z" fill="white" stroke="#263238" stroke-miterlimit="10"/>
<path d="M361.134 533.637C361.134 533.637 297.303 569.12 298.28 573.631C299.256 578.143 302.795 591.556 302.795 591.556C302.795 591.556 352.957 551.805 362.11 546.927C371.264 542.05 390.425 534.856 390.425 534.856C390.425 534.856 386.886 525.467 385.909 524.491C384.933 523.516 368.335 530.71 361.134 533.637Z" fill="white" stroke="#263238" stroke-miterlimit="10"/>
<path d="M305.847 578.875L254.709 676.179L217.85 737.39H438.39C438.39 737.39 436.803 686.665 433.508 654.352C430.213 622.162 406.413 559.243 401.532 552.78C396.65 546.318 395.307 543.026 395.307 543.026C395.307 543.026 394.331 532.661 390.791 530.954C387.252 529.247 351.736 541.44 305.847 578.875Z" fill="url(#paint10_linear_27_2329)"/>
<defs>
<radialGradient id="paint0_radial_27_2329" cx="0" cy="0" r="1" gradientUnits="userSpaceOnUse" gradientTransform="translate(320.5 416.5) rotate(90) scale(320.5)">
<stop stop-color="#275976"/>
<stop offset="1" stop-color="#131524"/>
</radialGradient>
<linearGradient id="paint1_linear_27_2329" x1="325.5" y1="137" x2="325.5" y2="694" gradientUnits="userSpaceOnUse">
<stop stop-color="#065A55"/>
<stop offset="1" stop-color="#95980F"/>
</linearGradient>
<linearGradient id="paint2_linear_27_2329" x1="419.068" y1="-46.4238" x2="406.743" y2="364.468" gradientUnits="userSpaceOnUse">
<stop stop-color="#1FC7D1"/>
<stop offset="1" stop-color="#004584"/>
</linearGradient>
<linearGradient id="paint3_linear_27_2329" x1="261.514" y1="-57.4141" x2="244.445" y2="298.393" gradientUnits="userSpaceOnUse">
<stop stop-color="#1FC7D1"/>
<stop offset="1" stop-color="#004584"/>
</linearGradient>
<linearGradient id="paint4_linear_27_2329" x1="178.413" y1="194.283" x2="114.585" y2="257.599" gradientUnits="userSpaceOnUse">
<stop offset="0.00558659" stop-color="#9FCFF7"/>
<stop offset="0.9888" stop-color="#9FCFF7" stop-opacity="0"/>
</linearGradient>
<linearGradient id="paint5_linear_27_2329" x1="620.289" y1="-3.92762" x2="471.837" y2="87.7432" gradientUnits="userSpaceOnUse">
<stop offset="0.00558659" stop-color="#9FCFF7"/>
<stop offset="0.9888" stop-color="#9FCFF7" stop-opacity="0"/>
</linearGradient>
<linearGradient id="paint6_linear_27_2329" x1="233.529" y1="10.0015" x2="150.425" y2="73.2154" gradientUnits="userSpaceOnUse">
<stop offset="0.00558659" stop-color="#9FCFF7"/>
<stop offset="0.9888" stop-color="#9FCFF7" stop-opacity="0"/>
</linearGradient>
<linearGradient id="paint7_linear_27_2329" x1="161.524" y1="10.0015" x2="78.4198" y2="73.2153" gradientUnits="userSpaceOnUse">
<stop offset="0.00558659" stop-color="#9FCFF7"/>
<stop offset="0.9888" stop-color="#9FCFF7" stop-opacity="0"/>
</linearGradient>
<linearGradient id="paint8_linear_27_2329" x1="243.762" y1="640.358" x2="241.992" y2="713.866" gradientUnits="userSpaceOnUse">
<stop stop-color="#1FC7D1"/>
<stop offset="1" stop-color="#004584"/>
</linearGradient>
<linearGradient id="paint9_linear_27_2329" x1="327.92" y1="365.458" x2="327.92" y2="564.86" gradientUnits="userSpaceOnUse">
<stop stop-color="#014584"/>
<stop offset="1" stop-color="#263238"/>
</linearGradient>
<linearGradient id="paint10_linear_27_2329" x1="337.771" y1="558.889" x2="335.172" y2="694.143" gradientUnits="userSpaceOnUse">
<stop stop-color="#1FC7D1"/>
<stop offset="1" stop-color="#004584"/>
</linearGradient>
<clipPath id="clip0_27_2329">
<rect width="91.3208" height="61.1944" fill="white" transform="translate(130.705 257.958)"/>
</clipPath>
<clipPath id="clip1_27_2329">
<rect width="64.0187" height="74.3747" fill="white" transform="translate(455.148 151.545) rotate(16.501)"/>
</clipPath>
</defs>
</svg>
